<svg width="43" height="26" viewBox="0 0 43 26" fill="none" xmlns="http://www.w3.org/2000/svg">
<path d="M39.521 9.19658L34.0027 3.67828C33.9993 3.67487 33.9956 3.67173 33.9922 3.66832C33.9888 3.66491 33.9847 3.66032 33.9808 3.65638C32.3705 2.04621 30.2475 1.0501 27.9799 0.840642C25.7123 0.631183 23.4429 1.22158 21.5648 2.50952C19.6867 1.22158 17.4174 0.631183 15.1498 0.840642C12.8821 1.0501 10.7592 2.04621 9.14885 3.65638L3.63056 9.17455C1.91126 10.8943 0.896252 13.1942 0.784487 15.6233C0.672721 18.0525 1.47226 20.4359 3.02637 22.3063C4.5805 24.1765 6.77713 25.3991 9.18572 25.734C11.5943 26.069 14.0412 25.4923 16.0467 24.117C17.6705 25.2306 19.5932 25.8267 21.5621 25.8274C23.5311 25.8279 25.454 25.2328 27.0785 24.1202C29.0816 25.504 31.5298 26.0886 33.9421 25.7595C36.3544 25.4302 38.5563 24.2109 40.1155 22.3409C41.6745 20.4709 42.4779 18.0855 42.368 15.6535C42.258 13.2213 41.2425 10.9182 39.521 9.19658ZM13.0501 21.3537C11.8044 21.9487 10.3884 22.084 9.05249 21.736C7.71656 21.388 6.54666 20.5789 5.74956 19.4517C4.95248 18.3245 4.5795 16.9519 4.69658 15.5764C4.81364 14.2008 5.4132 12.9109 6.38931 11.9346L11.9075 6.41632C12.764 5.56094 13.8643 4.99167 15.0573 4.7867C16.2503 4.58174 17.4776 4.75111 18.5704 5.27156L14.667 9.17455C13.1701 10.6637 12.201 12.6014 11.9075 14.6923C11.8428 15.1495 11.8102 15.6106 11.8099 16.0723C11.806 17.8977 12.3179 19.6871 13.2866 21.2343C13.2084 21.276 13.1296 21.3156 13.0501 21.3533V21.3537ZM25.7035 20.2114C24.6046 21.303 23.1178 21.9144 21.5689 21.9119C20.0199 21.9093 18.5352 21.2928 17.4399 20.1976C16.3447 19.1023 15.7282 17.6176 15.7256 16.0687C15.7231 14.5197 16.3345 13.033 17.4262 11.9341L21.5648 7.79543L25.7035 11.9341C26.7992 13.0326 27.4145 14.5208 27.4145 16.0723C27.4145 17.6238 26.7992 19.112 25.7035 20.2105V20.2114ZM36.7618 20.2333C35.9013 21.0916 34.7952 21.6612 33.5967 21.8633C32.3981 22.0654 31.1664 21.8899 30.072 21.3611C29.9933 21.3232 29.9154 21.2835 29.8385 21.2419C30.8101 19.693 31.3237 17.9008 31.3197 16.0723C31.3193 15.6106 31.2868 15.1495 31.2222 14.6923C30.9287 12.6014 29.9595 10.6637 28.4626 9.17455L24.5831 5.29516L24.5612 5.27326C25.6535 4.75305 26.8801 4.58356 28.0726 4.78804C29.2651 4.99253 30.365 5.56098 31.2216 6.4154C31.2256 6.41933 31.2292 6.42353 31.233 6.42746C31.2368 6.4314 31.2401 6.43402 31.2435 6.43743L36.736 11.9299L36.7622 11.9561C37.8598 13.0538 38.4764 14.5425 38.4764 16.0948C38.4764 17.647 37.8598 19.1357 36.7622 20.2334L36.7618 20.2333Z" fill="url(#paint0_linear)"/>
<defs>
<linearGradient id="paint0_linear" x1="12.1736" y1="25.5735" x2="21.6864" y2="-0.879037" gradientUnits="userSpaceOnUse">
<stop stop-color="#666FCF"/>
<stop offset="1" stop-color="#FF2539"/>
</linearGradient>
</defs>
</svg>
