<svg width="12" height="13" viewBox="0 0 12 13" fill="none" xmlns="http://www.w3.org/2000/svg">
<path d="M10.9924 4.0169C11.1331 4.0169 11.2737 3.89971 11.2737 3.73565V2.79815C11.2737 2.65752 11.1331 2.5169 10.9924 2.5169H10.5237V1.3919C10.5237 0.78252 10.0081 0.266895 9.39868 0.266895H1.89868C1.26587 0.266895 0.773682 0.78252 0.773682 1.3919V11.1419C0.773682 11.7747 1.26587 12.2669 1.89868 12.2669H9.39868C10.0081 12.2669 10.5237 11.7747 10.5237 11.1419V10.0169H10.9924C11.1331 10.0169 11.2737 9.89971 11.2737 9.73565V8.79815C11.2737 8.65752 11.1331 8.5169 10.9924 8.5169H10.5237V7.0169H10.9924C11.1331 7.0169 11.2737 6.89971 11.2737 6.73565V5.79815C11.2737 5.65752 11.1331 5.5169 10.9924 5.5169H10.5237V4.0169H10.9924ZM9.39868 11.1419H1.89868V1.3919H9.39868V11.1419ZM5.64868 6.2669C6.46899 6.2669 7.14868 5.61065 7.14868 4.7669C7.14868 3.94658 6.46899 3.2669 5.64868 3.2669C4.80493 3.2669 4.14868 3.94658 4.14868 4.7669C4.14868 5.61065 4.80493 6.2669 5.64868 6.2669ZM3.53931 9.2669H7.73462C8.03931 9.2669 8.27368 9.0794 8.27368 8.82158V8.37627C8.27368 7.62627 7.54712 7.0169 6.67993 7.0169C6.44556 7.0169 6.25806 7.2044 5.64868 7.2044C5.01587 7.2044 4.85181 7.0169 4.59399 7.0169C3.72681 7.0169 3.02368 7.62627 3.02368 8.37627V8.82158C3.02368 9.0794 3.25806 9.2669 3.53931 9.2669Z" fill="black"/>
</svg>
