<svg width="13" height="10" viewBox="0 0 13 10" fill="none" xmlns="http://www.w3.org/2000/svg">
<path d="M11.6487 0.0849037H1.89868C1.26587 0.0849037 0.773682 0.600529 0.773682 1.2099V7.9599C0.773682 8.59272 1.26587 9.0849 1.89868 9.0849H11.6487C12.2581 9.0849 12.7737 8.59272 12.7737 7.9599V1.2099C12.7737 0.600529 12.2581 0.0849037 11.6487 0.0849037ZM11.6487 1.2099V2.17084C11.1096 2.61615 10.2659 3.2724 8.48462 4.67865C8.08618 4.98334 7.31274 5.73334 6.77368 5.7099C6.21118 5.73334 5.43774 4.98334 5.03931 4.67865C3.25806 3.2724 2.41431 2.61615 1.89868 2.17084V1.2099H11.6487ZM1.89868 7.9599V3.62397C2.41431 4.04584 3.18774 4.65522 4.33618 5.56928C4.85181 5.96772 5.76587 6.85834 6.77368 6.8349C7.75806 6.85834 8.64868 5.96772 9.18774 5.56928C10.3362 4.65522 11.1096 4.04584 11.6487 3.62397V7.9599H1.89868Z" fill="black"/>
</svg>
