<svg width="13" height="13" viewBox="0 0 13 13" fill="none" xmlns="http://www.w3.org/2000/svg">
<path d="M11.9299 0.952171L9.72681 0.459984C9.21118 0.342796 8.69556 0.600609 8.50806 1.06936L7.47681 3.45998C7.28931 3.88186 7.40649 4.39748 7.78149 4.70217L8.71899 5.47561C8.06274 6.69436 7.03149 7.70217 5.81274 8.38186L5.03931 7.44436C4.73462 7.06936 4.21899 6.95217 3.79712 7.13967L1.40649 8.14748C0.937744 8.35842 0.679932 8.87405 0.797119 9.38967L1.28931 11.5928C1.40649 12.085 1.85181 12.4131 2.34399 12.4131C8.08618 12.4131 12.7737 7.77248 12.7737 2.00686C12.7737 1.51467 12.4221 1.06936 11.9299 0.952171ZM2.39087 11.2881L1.89868 9.17873L4.19556 8.19436L5.50806 9.78811C7.82837 8.68655 9.02368 7.49123 10.1252 5.17092L8.53149 3.85842L9.51587 1.56155L11.6487 2.05373C11.6252 7.13967 7.47681 11.2647 2.39087 11.2881Z" fill="black"/>
</svg>
