<svg width="13" height="12" viewBox="0 0 13 12" fill="none" xmlns="http://www.w3.org/2000/svg">
<path d="M6.58618 0.317627C3.37524 0.317627 0.773682 2.91919 0.773682 6.13013C0.773682 9.34106 3.37524 11.9426 6.58618 11.9426C9.79712 11.9426 12.3987 9.34106 12.3987 6.13013C12.3987 2.91919 9.79712 0.317627 6.58618 0.317627ZM10.7815 4.06763H9.21118C9.04712 3.22388 8.78931 2.47388 8.46118 1.8645C9.46899 2.30981 10.2893 3.08325 10.7815 4.06763ZM6.58618 1.44263C7.00806 1.44263 7.71118 2.427 8.06274 4.06763H5.08618C5.43774 2.427 6.14087 1.44263 6.58618 1.44263ZM1.89868 6.13013C1.89868 5.82544 1.92212 5.49731 1.99243 5.19263H3.79712C3.77368 5.52075 3.77368 5.82544 3.77368 6.13013C3.77368 6.45825 3.77368 6.76294 3.79712 7.06763H1.99243C1.92212 6.78638 1.89868 6.45825 1.89868 6.13013ZM2.36743 8.19263H3.93774C4.10181 9.05981 4.35962 9.80981 4.68774 10.4192C3.67993 9.97388 2.85962 9.177 2.36743 8.19263ZM3.93774 4.06763H2.36743C2.85962 3.08325 3.67993 2.30981 4.68774 1.8645C4.35962 2.47388 4.10181 3.22388 3.93774 4.06763ZM6.58618 10.8176C6.14087 10.8176 5.43774 9.85669 5.08618 8.19263H8.06274C7.71118 9.85669 7.00806 10.8176 6.58618 10.8176ZM8.22681 7.06763H4.92212C4.89868 6.78638 4.89868 6.45825 4.89868 6.13013C4.89868 5.802 4.89868 5.49731 4.92212 5.19263H8.22681C8.25024 5.49731 8.27368 5.802 8.27368 6.13013C8.27368 6.45825 8.25024 6.78638 8.22681 7.06763ZM8.46118 10.4192C8.78931 9.80981 9.04712 9.05981 9.21118 8.19263H10.7815C10.2893 9.177 9.46899 9.97388 8.46118 10.4192ZM9.35181 7.06763C9.37524 6.76294 9.39868 6.45825 9.39868 6.13013C9.39868 5.82544 9.37524 5.52075 9.35181 5.19263H11.1799C11.2268 5.49731 11.2737 5.82544 11.2737 6.13013C11.2737 6.45825 11.2268 6.78638 11.1799 7.06763H9.35181Z" fill="black"/>
</svg>
